<?xml version="1.0" encoding="UTF-8" standalone="no"?>
<svg
   xmlns:dc="http://purl.org/dc/elements/1.1/"
   xmlns:cc="http://creativecommons.org/ns#"
   xmlns:rdf="http://www.w3.org/1999/02/22-rdf-syntax-ns#"
   xmlns:svg="http://www.w3.org/2000/svg"
   xmlns="http://www.w3.org/2000/svg"
   xmlns:sodipodi="http://sodipodi.sourceforge.net/DTD/sodipodi-0.dtd"
   xmlns:inkscape="http://www.inkscape.org/namespaces/inkscape"
   version="1.1"
   id="svg2"
   xml:space="preserve"
   width="2560"
   height="1440"
   viewBox="0 0 2560 1440"
   sodipodi:docname="PARIAH_LOGO_V2_1 (1).eps"><metadata
     id="metadata8"><rdf:RDF><cc:Work
         rdf:about=""><dc:format>image/svg+xml</dc:format><dc:type
           rdf:resource="http://purl.org/dc/dcmitype/StillImage" /></cc:Work></rdf:RDF></metadata><defs
     id="defs6" /><sodipodi:namedview
     pagecolor="#ffffff"
     bordercolor="#666666"
     borderopacity="1"
     objecttolerance="10"
     gridtolerance="10"
     guidetolerance="10"
     inkscape:pageopacity="0"
     inkscape:pageshadow="2"
     inkscape:window-width="640"
     inkscape:window-height="480"
     id="namedview4" /><g
     id="g10"
     inkscape:groupmode="layer"
     inkscape:label="ink_ext_XXXXXX"
     transform="matrix(1.3333333,0,0,-1.3333333,0,1440)"><g
       id="g12"
       transform="scale(0.1)"><path
         d="m 360,2285.83 h 1388.03 l -17.79,1245.67 v 142.36 c 1121.1,0 1824.01,542.75 1824.01,2420.16 0,1877.4 -702.91,2420.16 -1868.5,2420.16 H 360 L 377.797,6965.99 V 3531.5 Z m 1450.32,4982.68 c 275.82,0 373.7,-186.86 373.7,-1174.49 0,-987.64 -97.88,-1174.49 -373.7,-1174.49 h -80.08 V 7268.51 Z M 3331.81,2285.83 h 1414.73 l 71.18,1076.61 h 596.14 l 80.08,-1076.61 H 6944.26 L 6010,8514.18 H 4212.68 Z m 1743.94,4786.93 h 53.39 L 5324.89,4581.42 H 4888.9 Z M 7042,2285.83 h 1370.24 l -17.8,1245.67 v 818.58 h 106.77 c 124.57,0 186.85,-53.39 231.34,-391.5 L 8937.2,2285.83 h 1379.1 l -266.9,1583.78 c -124.57,738.5 -355.9,978.74 -729.6,1085.51 v 35.59 c 489.37,80.08 872,418.19 872,1574.88 0,1485.91 -685.15,1948.59 -1824.05,1948.59 H 7042 l 17.79,-1548.19 V 3531.5 Z m 1477.01,4982.68 c 275.82,0 347.01,-186.86 347.01,-880.87 0,-694.02 -71.19,-880.87 -347.01,-880.87 H 8394.44 V 7268.51 Z M 10458.6,2285.83 h 1388.1 l -17.8,1245.67 v 3470.08 l 17.8,1512.6 h -1388.1 l 17.8,-1512.6 V 3531.5 Z m 1485.9,0 h 1414.7 l 71.2,1076.61 h 596.1 l 80.1,-1076.61 h 1450.3 l -934.2,6228.35 h -1797.4 z m 1743.9,4786.93 h 53.4 l 195.7,-2491.34 h -436 z m 1966.2,-4786.93 h 1388.1 l -17.8,1245.67 v 1067.71 h 444.9 V 3531.5 L 17452,2285.83 h 1388 l -17.8,1245.67 v 3470.08 l 17.8,1512.6 h -1388 l 17.8,-1512.6 V 5987.24 h -444.9 v 1014.34 l 17.8,1512.6 h -1388.1 l 17.8,-1512.6 V 3531.5 l -17.8,-1245.67"
         style="fill:#100f0d;fill-opacity:1;fill-rule:nonzero;stroke:none"
         id="path14" /></g></g></svg>
